<svg width="32" height="32" viewBox="0 0 32 32" fill="none" xmlns="http://www.w3.org/2000/svg">
<path d="M14.668 6.66675H28.0013M14.668 12.0001H21.3346" stroke="#2FB188" stroke-width="2" stroke-linecap="round" stroke-linejoin="round"/>
<path d="M8 6.66675H5.33333C4.59695 6.66675 4 7.2637 4 8.00008V10.6667C4 11.4031 4.59695 12.0001 5.33333 12.0001H8C8.73638 12.0001 9.33333 11.4031 9.33333 10.6667V8.00008C9.33333 7.2637 8.73638 6.66675 8 6.66675Z" stroke="#2FB188" stroke-width="2" stroke-linecap="round" stroke-linejoin="round"/>
<path d="M14.668 20.0001H28.0013M14.668 25.3335H21.3346" stroke="#2FB188" stroke-width="2" stroke-linecap="round" stroke-linejoin="round"/>
<path d="M8 20.0001H5.33333C4.59695 20.0001 4 20.5971 4 21.3335V24.0001C4 24.7365 4.59695 25.3335 5.33333 25.3335H8C8.73638 25.3335 9.33333 24.7365 9.33333 24.0001V21.3335C9.33333 20.5971 8.73638 20.0001 8 20.0001Z" stroke="#2FB188" stroke-width="2" stroke-linecap="round" stroke-linejoin="round"/>
</svg>
