<svg width="32" height="32" viewBox="0 0 32 32" fill="none" xmlns="http://www.w3.org/2000/svg">
<path d="M6.66667 6.66659H9.33333V10.6666H22.6667V6.66659H25.3333V13.3333H28V6.66659C28 5.19992 26.8 3.99992 25.3333 3.99992H19.76C19.2 2.45325 17.7333 1.33325 16 1.33325C14.2667 1.33325 12.8 2.45325 12.24 3.99992H6.66667C5.2 3.99992 4 5.19992 4 6.66659V25.3333C4 26.7999 5.2 27.9999 6.66667 27.9999H13.3333V25.3333H6.66667V6.66659ZM16 3.99992C16.7333 3.99992 17.3333 4.59992 17.3333 5.33325C17.3333 6.06659 16.7333 6.66659 16 6.66659C15.2667 6.66659 14.6667 6.06659 14.6667 5.33325C14.6667 4.59992 15.2667 3.99992 16 3.99992Z" fill="#2FB188"/>
<path d="M27.0667 25.2C27.6 24.2667 28 23.2 28 22C28 18.6667 25.3333 16 22 16C18.6667 16 16 18.6667 16 22C16 25.3333 18.6667 28 22 28C23.2 28 24.2667 27.6 25.2 27.0667L28.8 30.6667L30.6667 28.8L27.0667 25.2ZM22 25.3333C20.1333 25.3333 18.6667 23.8667 18.6667 22C18.6667 20.1333 20.1333 18.6667 22 18.6667C23.8667 18.6667 25.3333 20.1333 25.3333 22C25.3333 23.8667 23.8667 25.3333 22 25.3333Z" fill="#2FB188"/>
</svg>
