<svg width="32" height="32" viewBox="0 0 32 32" fill="none" xmlns="http://www.w3.org/2000/svg">
<path d="M14.6667 15.9999C13.2 15.9999 11.9444 15.4777 10.9 14.4333C9.85556 13.3888 9.33333 12.1333 9.33333 10.6666C9.33333 9.19992 9.85556 7.94436 10.9 6.89992C11.9444 5.85547 13.2 5.33325 14.6667 5.33325C16.1333 5.33325 17.3889 5.85547 18.4333 6.89992C19.4778 7.94436 20 9.19992 20 10.6666C20 12.1333 19.4778 13.3888 18.4333 14.4333C17.3889 15.4777 16.1333 15.9999 14.6667 15.9999ZM14.6667 13.3333C15.4 13.3333 16.028 13.0719 16.5507 12.5493C17.0724 12.0275 17.3333 11.3999 17.3333 10.6666C17.3333 9.93325 17.0724 9.3057 16.5507 8.78392C16.028 8.26125 15.4 7.99992 14.6667 7.99992C13.9333 7.99992 13.3058 8.26125 12.784 8.78392C12.2613 9.3057 12 9.93325 12 10.6666C12 11.3999 12.2613 12.0275 12.784 12.5493C13.3058 13.0719 13.9333 13.3333 14.6667 13.3333ZM29.4667 31.3333L25.2 27.0666C24.7333 27.3333 24.2333 27.5555 23.7 27.7333C23.1667 27.911 22.6 27.9999 22 27.9999C20.3333 27.9999 18.9164 27.4168 17.7493 26.2506C16.5831 25.0835 16 23.6666 16 21.9999C16 20.3333 16.5831 18.9164 17.7493 17.7493C18.9164 16.583 20.3333 15.9999 22 15.9999C23.6667 15.9999 25.0836 16.583 26.2507 17.7493C27.4169 18.9164 28 20.3333 28 21.9999C28 22.5999 27.9111 23.1666 27.7333 23.6999C27.5556 24.2333 27.3333 24.7333 27.0667 25.1999L31.3333 29.4666L29.4667 31.3333ZM22 25.3333C22.9333 25.3333 23.7222 25.011 24.3667 24.3666C25.0111 23.7221 25.3333 22.9333 25.3333 21.9999C25.3333 21.0666 25.0111 20.2777 24.3667 19.6333C23.7222 18.9888 22.9333 18.6666 22 18.6666C21.0667 18.6666 20.2778 18.9888 19.6333 19.6333C18.9889 20.2777 18.6667 21.0666 18.6667 21.9999C18.6667 22.9333 18.9889 23.7221 19.6333 24.3666C20.2778 25.011 21.0667 25.3333 22 25.3333ZM4 26.6666V22.9666C4 22.211 4.18889 21.511 4.56667 20.8666C4.94444 20.2221 5.46667 19.7333 6.13333 19.3999C7.26667 18.8221 8.54444 18.3333 9.96667 17.9333C11.3889 17.5333 12.9667 17.3333 14.7 17.3333C14.4333 17.7333 14.2058 18.1608 14.0173 18.6159C13.828 19.0719 13.6778 19.5444 13.5667 20.0333C12.2333 20.1444 11.0444 20.3719 10 20.7159C8.95556 21.0608 8.07778 21.4221 7.36667 21.7999C7.14444 21.911 6.97244 22.0719 6.85067 22.2826C6.728 22.4941 6.66667 22.7221 6.66667 22.9666V23.9999H13.5667C13.6778 24.4888 13.828 24.9555 14.0173 25.3999C14.2058 25.8444 14.4333 26.2666 14.7 26.6666H4Z" fill="#2FB188"/>
</svg>
