<svg width="546" height="479" viewBox="0 0 546 479" fill="none" xmlns="http://www.w3.org/2000/svg">
<g filter="url(#filter0_d_25_15051)">
<rect width="534" height="461" rx="38" fill="#2FB188"/>
</g>
<path d="M383.162 83.5809C203.487 79.9635 -69.1173 92.866 274.871 228.828C618.86 364.79 305.17 380.685 105.699 364.711" stroke="#FCFCFC" stroke-width="4" stroke-dasharray="18 18"/>
<rect x="72" y="332" width="64" height="64" rx="10" fill="white"/>
<rect x="377" y="271" width="61" height="61" rx="10" fill="white"/>
<rect x="97" y="118" width="61" height="61" rx="10" fill="white"/>
<rect x="387" y="55" width="61" height="61" rx="10" fill="white"/>
<path d="M92.3333 352.333H95.6667V357.333H112.333V352.333H115.667V360.667H119V352.333C119 350.5 117.5 349 115.667 349H108.7C108 347.067 106.167 345.667 104 345.667C101.833 345.667 100 347.067 99.3 349H92.3333C90.5 349 89 350.5 89 352.333V375.667C89 377.5 90.5 379 92.3333 379H100.667V375.667H92.3333V352.333ZM104 349C104.917 349 105.667 349.75 105.667 350.667C105.667 351.583 104.917 352.333 104 352.333C103.083 352.333 102.333 351.583 102.333 350.667C102.333 349.75 103.083 349 104 349Z" fill="#2FB188"/>
<path d="M117.833 375.5C118.5 374.333 119 373 119 371.5C119 367.333 115.667 364 111.5 364C107.333 364 104 367.333 104 371.5C104 375.667 107.333 379 111.5 379C113 379 114.333 378.5 115.5 377.833L120 382.333L122.333 380L117.833 375.5ZM111.5 375.667C109.167 375.667 107.333 373.833 107.333 371.5C107.333 369.167 109.167 367.333 111.5 367.333C113.833 367.333 115.667 369.167 115.667 371.5C115.667 373.833 113.833 375.667 111.5 375.667Z" fill="#2FB188"/>
<path d="M405.333 301C403.5 301 401.931 300.347 400.625 299.042C399.319 297.736 398.667 296.167 398.667 294.333C398.667 292.5 399.319 290.931 400.625 289.625C401.931 288.32 403.5 287.667 405.333 287.667C407.167 287.667 408.736 288.32 410.042 289.625C411.347 290.931 412 292.5 412 294.333C412 296.167 411.347 297.736 410.042 299.042C408.736 300.347 407.167 301 405.333 301ZM405.333 297.667C406.25 297.667 407.035 297.34 407.688 296.687C408.341 296.035 408.667 295.25 408.667 294.333C408.667 293.417 408.341 292.632 407.688 291.98C407.035 291.327 406.25 291 405.333 291C404.417 291 403.632 291.327 402.98 291.98C402.327 292.632 402 293.417 402 294.333C402 295.25 402.327 296.035 402.98 296.687C403.632 297.34 404.417 297.667 405.333 297.667ZM423.833 320.167L418.5 314.833C417.917 315.167 417.292 315.445 416.625 315.667C415.958 315.889 415.25 316 414.5 316C412.417 316 410.646 315.271 409.187 313.813C407.729 312.355 407 310.583 407 308.5C407 306.417 407.729 304.646 409.187 303.187C410.646 301.729 412.417 301 414.5 301C416.583 301 418.354 301.729 419.813 303.187C421.271 304.646 422 306.417 422 308.5C422 309.25 421.889 309.958 421.667 310.625C421.444 311.292 421.167 311.917 420.833 312.5L426.167 317.833L423.833 320.167ZM414.5 312.667C415.667 312.667 416.653 312.264 417.458 311.458C418.264 310.653 418.667 309.667 418.667 308.5C418.667 307.333 418.264 306.347 417.458 305.542C416.653 304.736 415.667 304.333 414.5 304.333C413.333 304.333 412.347 304.736 411.542 305.542C410.736 306.347 410.333 307.333 410.333 308.5C410.333 309.667 410.736 310.653 411.542 311.458C412.347 312.264 413.333 312.667 414.5 312.667ZM392 314.333V309.708C392 308.764 392.236 307.889 392.708 307.083C393.181 306.278 393.833 305.667 394.667 305.25C396.083 304.528 397.681 303.917 399.458 303.417C401.236 302.917 403.208 302.667 405.375 302.667C405.042 303.167 404.757 303.701 404.522 304.27C404.285 304.84 404.097 305.431 403.958 306.042C402.292 306.181 400.806 306.465 399.5 306.895C398.194 307.326 397.097 307.778 396.208 308.25C395.931 308.389 395.716 308.59 395.563 308.853C395.41 309.118 395.333 309.403 395.333 309.708V311H403.958C404.097 311.611 404.285 312.195 404.522 312.75C404.757 313.306 405.042 313.833 405.375 314.333H392Z" fill="#2FB188"/>
<path d="M125.417 136.917H141.25M125.417 143.25H133.334" stroke="#2FB188" stroke-width="3" stroke-linecap="round" stroke-linejoin="round"/>
<path d="M117.5 136.917H114.333C113.459 136.917 112.75 137.626 112.75 138.5V141.667C112.75 142.541 113.459 143.25 114.333 143.25H117.5C118.374 143.25 119.083 142.541 119.083 141.667V138.5C119.083 137.626 118.374 136.917 117.5 136.917Z" stroke="#2FB188" stroke-width="3" stroke-linecap="round" stroke-linejoin="round"/>
<path d="M125.417 152.75H141.25M125.417 159.083H133.334" stroke="#2FB188" stroke-width="3" stroke-linecap="round" stroke-linejoin="round"/>
<path d="M117.5 152.75H114.333C113.459 152.75 112.75 153.459 112.75 154.333V157.5C112.75 158.374 113.459 159.083 114.333 159.083H117.5C118.374 159.083 119.083 158.374 119.083 157.5V154.333C119.083 153.459 118.374 152.75 117.5 152.75Z" stroke="#2FB188" stroke-width="3" stroke-linecap="round" stroke-linejoin="round"/>
<path d="M407.875 88.4167V77.0833C407.875 76.3319 408.165 75.6112 408.68 75.0799C409.196 74.5485 409.896 74.25 410.625 74.25H427.125C427.854 74.25 428.554 74.5485 429.07 75.0799C429.585 75.6112 429.875 76.3319 429.875 77.0833V95.5C429.875 96.9167 429.05 99.75 425.75 99.75M413.375 79.9167H424.375M413.375 85.5833H418.875M425.75 99.75H409.25C407.875 99.75 405.125 98.9 405.125 95.5V92.6667H421.625V95.5C421.625 98.9 424.375 99.75 425.75 99.75Z" stroke="#2FB188" stroke-width="3" stroke-linecap="round" stroke-linejoin="round"/>
<path d="M464 311.5C464 312.616 463.78 313.722 463.353 314.753C462.926 315.784 462.3 316.721 461.51 317.51C460.721 318.3 459.784 318.926 458.753 319.353C457.722 319.78 456.616 320 455.5 320C454.384 320 453.278 319.78 452.247 319.353C451.216 318.926 450.279 318.3 449.49 317.51C448.7 316.721 448.074 315.784 447.647 314.753C447.22 313.722 447 312.616 447 311.5L455.5 311.5H464Z" fill="white"/>
<path d="M466.582 300.18C466.722 301.5 466.312 302.66 465.352 303.66C464.392 304.66 463.222 305.16 461.842 305.16H460.822C460.022 305.16 459.232 304.95 458.452 304.53L459.442 314.82L457.162 315.06L455.242 295.38L457.522 295.14L458.032 300.51C458.312 301.93 459.132 302.64 460.492 302.64H461.842C462.582 302.64 463.192 302.42 463.672 301.98C464.152 301.54 464.362 301.01 464.302 300.39L463.792 295.41L466.072 295.14L466.582 300.18Z" fill="#252525"/>
<path d="M72 153.5C72 154.616 71.7801 155.722 71.353 156.753C70.9258 157.784 70.2997 158.721 69.5104 159.51C68.7211 160.3 67.7841 160.926 66.7528 161.353C65.7215 161.78 64.6162 162 63.5 162C62.3838 162 61.2785 161.78 60.2472 161.353C59.2159 160.926 58.2789 160.3 57.4896 159.51C56.7003 158.721 56.0742 157.784 55.647 156.753C55.2199 155.722 55 154.616 55 153.5L63.5 153.5H72Z" fill="white"/>
<path d="M80.5688 142.3C80.6888 143.62 80.2588 144.77 79.2788 145.75C78.3188 146.73 77.1688 147.22 75.8288 147.22H75.5288C74.1088 147.22 72.9288 146.65 71.9888 145.51C71.0488 146.65 69.8288 147.22 68.3288 147.22H67.6388C66.8388 147.22 66.1288 147.04 65.5088 146.68L66.4988 156.88L64.2188 157.12L62.2988 137.47L64.5788 137.23L65.0888 142.36C65.1888 143.06 65.4588 143.63 65.8988 144.07C66.3388 144.49 66.8888 144.7 67.5488 144.7H68.3288C69.0288 144.7 69.6288 144.48 70.1288 144.04C70.6288 143.58 70.8488 143.03 70.7888 142.39L70.3688 138.16L72.6488 137.92L73.0688 142.27C73.1288 143.01 73.3788 143.6 73.8188 144.04C74.2788 144.48 74.8488 144.7 75.5288 144.7H75.8288C76.5288 144.7 77.1288 144.48 77.6288 144.04C78.1288 143.58 78.3488 143.03 78.2888 142.39L77.8088 137.47L80.0888 137.23L80.5688 142.3Z" fill="#252525"/>
<path d="M481 83.5C481 84.6162 480.78 85.7215 480.353 86.7528C479.926 87.7841 479.3 88.7211 478.51 89.5104C477.721 90.2997 476.784 90.9258 475.753 91.353C474.722 91.7801 473.616 92 472.5 92C471.384 92 470.278 91.7801 469.247 91.353C468.216 90.9258 467.279 90.2997 466.49 89.5104C465.7 88.7211 465.074 87.7841 464.647 86.7528C464.22 85.7215 464 84.6162 464 83.5L472.5 83.5H481Z" fill="white"/>
<path d="M487.539 74.7V77.22H477.009C476.309 77.22 475.639 77.06 474.999 76.74L475.959 86.88L473.679 87.12L472.299 72.75C472.299 72.73 472.289 72.69 472.269 72.63C472.269 72.57 472.269 72.52 472.269 72.48L471.789 67.44L474.069 67.2L474.579 72.45C474.799 73.95 475.609 74.7 477.009 74.7H477.789C477.229 73.78 476.949 72.79 476.949 71.73C476.949 70.19 477.479 68.89 478.539 67.83C479.599 66.75 480.889 66.22 482.409 66.24C482.709 66.24 483.069 66.29 483.489 66.39C483.929 66.49 484.349 66.62 484.749 66.78C485.149 66.92 485.529 67.07 485.889 67.23C486.249 67.37 486.549 67.49 486.789 67.59L487.119 67.74L486.129 70.02C486.069 70 485.859 69.92 485.499 69.78C485.139 69.62 484.789 69.48 484.449 69.36C484.109 69.22 483.739 69.09 483.339 68.97C482.939 68.85 482.629 68.78 482.409 68.76C481.529 68.68 480.779 68.94 480.159 69.54C479.539 70.14 479.229 70.87 479.229 71.73C479.229 72.57 479.499 73.28 480.039 73.86C480.599 74.42 481.279 74.7 482.079 74.7H487.539Z" fill="#252525"/>
<path d="M55 373.5C55 374.616 54.7801 375.722 54.353 376.753C53.9258 377.784 53.2997 378.721 52.5104 379.51C51.7211 380.3 50.7841 380.926 49.7528 381.353C48.7215 381.78 47.6162 382 46.5 382C45.3838 382 44.2785 381.78 43.2472 381.353C42.2159 380.926 41.2789 380.3 40.4896 379.51C39.7003 378.721 39.0742 377.784 38.647 376.753C38.2199 375.722 38 374.616 38 373.5L46.5 373.5H55Z" fill="white"/>
<path d="M47.6329 377.12L45.7129 357.47L47.9929 357.23L49.9129 376.88L47.6329 377.12Z" fill="#252525"/>
<defs>
<filter id="filter0_d_25_15051" x="0" y="0" width="546" height="479" filterUnits="userSpaceOnUse" color-interpolation-filters="sRGB">
<feFlood flood-opacity="0" result="BackgroundImageFix"/>
<feColorMatrix in="SourceAlpha" type="matrix" values="0 0 0 0 0 0 0 0 0 0 0 0 0 0 0 0 0 0 127 0" result="hardAlpha"/>
<feOffset dx="12" dy="18"/>
<feComposite in2="hardAlpha" operator="out"/>
<feColorMatrix type="matrix" values="0 0 0 0 0.133333 0 0 0 0 0.145098 0 0 0 0 0.223529 0 0 0 1 0"/>
<feBlend mode="normal" in2="BackgroundImageFix" result="effect1_dropShadow_25_15051"/>
<feBlend mode="normal" in="SourceGraphic" in2="effect1_dropShadow_25_15051" result="shape"/>
</filter>
</defs>
</svg>
