<svg width="88" height="121" viewBox="0 0 88 121" fill="none" xmlns="http://www.w3.org/2000/svg">
<circle cx="41" cy="80" r="41" fill="#2EA07B" fill-opacity="0.23"/>
<path d="M79.4465 54.1V68.3H43.0465C41.5798 68.3 40.3132 68.1667 39.2465 67.9L42.0465 97.3L29.4465 98.7L24.8465 50.5C24.7798 50.3667 24.7465 50.1333 24.7465 49.8L23.1465 33.1L35.7465 31.7L37.4465 49.2C37.7132 51 38.2465 52.2667 39.0465 53C39.9132 53.6667 41.1798 54.0333 42.8465 54.1C42.0465 51.9 41.6465 49.5667 41.6465 47.1C41.6465 41.1667 43.6465 36.1667 47.6465 32.1C51.7132 27.9667 56.6465 25.9 62.4465 25.9C64.1798 25.9 66.4465 26.3667 69.2465 27.3C72.0465 28.1667 74.3465 29.0333 76.1465 29.9C78.0132 30.7 79.0132 31.1667 79.1465 31.3L73.5465 43.9C67.2132 41.5 63.5132 40.2333 62.4465 40.1C60.1798 39.6333 58.2465 40.1667 56.6465 41.7C55.0465 43.1667 54.2465 44.9667 54.2465 47.1C54.2465 49.1 54.8465 50.7667 56.0465 52.1C57.3132 53.4333 58.8465 54.1 60.6465 54.1H79.4465Z" fill="black"/>
</svg>
