<svg width="57" height="74" viewBox="0 0 57 74" fill="none" xmlns="http://www.w3.org/2000/svg">
<path d="M56.4465 29.1V43.3H20.0465C18.5798 43.3 17.3132 43.1667 16.2465 42.9L19.0465 72.3L6.44648 73.7L1.84648 25.5C1.77982 25.3667 1.74648 25.1333 1.74648 24.8L0.146485 8.1L12.7465 6.7L14.4465 24.2C14.7132 26 15.2465 27.2667 16.0465 28C16.9132 28.6667 18.1798 29.0333 19.8465 29.1C19.0465 26.9 18.6465 24.5667 18.6465 22.1C18.6465 16.1667 20.6465 11.1667 24.6465 7.1C28.7132 2.96666 33.6465 0.899998 39.4465 0.899998C41.1798 0.899998 43.4465 1.36667 46.2465 2.3C49.0465 3.16667 51.3465 4.03333 53.1465 4.89999C55.0132 5.7 56.0132 6.16666 56.1465 6.29999L50.5465 18.9C44.2132 16.5 40.5132 15.2333 39.4465 15.1C37.1798 14.6333 35.2465 15.1667 33.6465 16.7C32.0465 18.1667 31.2465 19.9667 31.2465 22.1C31.2465 24.1 31.8465 25.7667 33.0465 27.1C34.3132 28.4333 35.8465 29.1 37.6465 29.1H56.4465Z" fill="black"/>
</svg>
