<svg width="103" height="103" viewBox="0 0 103 103" fill="none" xmlns="http://www.w3.org/2000/svg">
<path d="M51.4998 87.1208L14.2696 50.1052C12.4099 48.2454 11.0151 46.1354 10.0852 43.775C9.15536 41.4145 8.69043 38.9826 8.69043 36.4791C8.69043 31.1145 10.5502 26.5539 14.2696 22.7973C17.989 19.0435 22.5311 17.1666 27.8956 17.1666C30.3991 17.1666 32.8311 17.6487 35.1915 18.6129C37.5519 19.58 39.662 20.9934 41.5217 22.8531L51.4998 32.7239L61.4779 22.8531C63.3376 20.9934 65.4477 19.58 67.8081 18.6129C70.1685 17.6487 72.6005 17.1666 75.104 17.1666C80.4685 17.1666 85.0292 19.0435 88.7858 22.7973C92.5396 26.5539 94.4165 31.1145 94.4165 36.4791C94.4165 38.9826 93.9344 41.4145 92.9702 43.775C92.0031 46.1354 90.5897 48.2454 88.73 50.1052L51.4998 87.1208ZM33.2602 50.8562L42.38 41.7364L32.5092 31.9729C31.7939 31.2576 31.0243 30.7383 30.2003 30.415C29.3791 30.0946 28.5751 29.9701 27.7883 30.0416C26.0717 30.1132 24.5882 30.7741 23.3379 32.0244C22.0847 33.2775 21.4581 34.7625 21.4581 36.4791C21.4581 37.2659 21.6198 38.0527 21.9431 38.8395C22.2635 39.6263 22.7456 40.3416 23.3894 40.9854L33.2602 50.8562ZM51.4998 68.8812L79.7175 40.9854C80.3613 40.4132 80.8262 39.715 81.1123 38.891C81.3984 38.0699 81.5415 37.2659 81.5415 36.4791C81.5415 34.7625 80.9335 33.2775 79.7175 32.0244C78.5015 30.7741 77.0352 30.1132 75.3185 30.0416C74.5317 29.9701 73.7278 30.0946 72.9066 30.415C72.0826 30.7383 71.313 31.2576 70.5977 31.9729L42.4873 59.8687L51.4998 68.8812Z" fill="#1FA55D" fill-opacity="0.4"/>
</svg>
