<svg width="10" height="9" viewBox="0 0 10 9" fill="none" xmlns="http://www.w3.org/2000/svg">
<path fill-rule="evenodd" clip-rule="evenodd" d="M9.50391 4.50002C9.50391 4.65749 9.44135 4.80851 9.33 4.91986C9.21865 5.03121 9.06763 5.09377 8.91016 5.09377L2.03097 5.09377L4.58053 7.64214C4.63574 7.69735 4.67953 7.76288 4.7094 7.83501C4.73928 7.90714 4.75466 7.98445 4.75466 8.06252C4.75466 8.14059 4.73928 8.21789 4.7094 8.29002C4.67953 8.36215 4.63574 8.42769 4.58053 8.48289C4.52533 8.5381 4.45979 8.58189 4.38766 8.61176C4.31553 8.64164 4.23823 8.65702 4.16016 8.65702C4.08209 8.65702 4.00478 8.64164 3.93265 8.61176C3.86052 8.58189 3.79499 8.5381 3.73978 8.48289L0.177282 4.92039C0.121988 4.86524 0.0781188 4.79972 0.0481862 4.72758C0.0182535 4.65545 0.00284588 4.57812 0.00284588 4.50002C0.00284588 4.42192 0.0182535 4.34459 0.0481862 4.27245C0.0781188 4.20032 0.121988 4.1348 0.177282 4.07964L3.73978 0.517142C3.79499 0.461938 3.86052 0.418147 3.93265 0.388271C4.00478 0.358395 4.08209 0.343017 4.16016 0.343017C4.23823 0.343017 4.31553 0.358395 4.38766 0.388271C4.45979 0.418147 4.52533 0.461938 4.58053 0.517143C4.69202 0.628633 4.75466 0.779846 4.75466 0.937518C4.75466 1.01559 4.73928 1.0929 4.7094 1.16502C4.67953 1.23715 4.63574 1.30269 4.58053 1.35789L2.03097 3.90627L8.91016 3.90627C9.06763 3.90627 9.21865 3.96882 9.33 4.08017C9.44135 4.19152 9.50391 4.34255 9.50391 4.50002V4.50002Z" fill="white"/>
</svg>
