<svg width="35" height="35" viewBox="0 0 35 35" fill="none" xmlns="http://www.w3.org/2000/svg">
<path d="M23.8208 8.75C22.6857 8.79271 21.5616 8.98918 20.4794 9.33406C19.8255 9.52712 19.1598 9.67801 18.4866 9.78578C18.2153 8.27033 17.4203 6.89832 16.2405 5.90935C15.0606 4.92039 13.5708 4.37732 12.0312 4.375V6.5625C12.9786 6.5657 13.8991 6.87684 14.6542 7.44898C15.4092 8.02111 15.9577 8.82324 16.217 9.73437C15.6223 9.62566 15.0322 9.49247 14.4484 9.33516C13.3188 8.99546 12.1511 8.79887 10.9725 8.75C6.90156 8.75 4.375 12.1023 4.375 17.5C4.375 25.7141 8.82438 30.6239 13.125 30.625H13.1272C14.0664 30.5752 14.9889 30.3566 15.8506 29.9797C16.3736 29.7449 16.9301 29.5936 17.5 29.5312C18.0709 29.5935 18.6286 29.7448 19.1527 29.9797C20.0139 30.3567 20.9361 30.5753 21.875 30.625C26.1734 30.6239 30.625 25.7141 30.625 17.5C30.625 13.4641 28.8422 8.75 23.8208 8.75ZM21.875 28.4375C21.1984 28.38 20.5365 28.2084 19.9172 27.93C19.1528 27.5922 18.3342 27.3937 17.5 27.3438C16.6672 27.3939 15.8501 27.5924 15.0872 27.93C14.4663 28.2082 13.8029 28.3798 13.125 28.4375H13.1272C9.90062 28.4364 6.5625 24.3458 6.5625 17.5C6.5625 15.5269 6.99234 10.9375 10.9725 10.9375C11.9669 10.9905 12.9512 11.1643 13.9037 11.4548C14.9888 11.7793 16.1087 11.9728 17.2397 12.0312H17.7767C18.8897 11.9782 19.9912 11.7811 21.0536 11.445C21.9498 11.1556 22.8802 10.985 23.8208 10.9375C28.2144 10.9375 28.4375 16.4041 28.4375 17.5C28.4375 24.3458 25.0994 28.4364 21.875 28.4375Z" fill="#A3D9BC" fill-opacity="0.24"/>
<path d="M19.6875 7.65625H18.5938V6.5625C18.5943 5.98252 18.825 5.42645 19.2351 5.01634C19.6452 4.60623 20.2013 4.37558 20.7812 4.375H21.875V5.46875C21.8744 6.04873 21.6438 6.6048 21.2337 7.01491C20.8235 7.42502 20.2675 7.65567 19.6875 7.65625Z" fill="#A3D9BC" fill-opacity="0.24"/>
</svg>
