<svg width="45" height="45" viewBox="0 0 45 45" fill="none" xmlns="http://www.w3.org/2000/svg">
<path d="M22.5 3.51562H22.4648C17.4267 3.52029 12.5967 5.52553 9.03669 9.09049C5.47668 12.6554 3.47814 17.4882 3.48047 22.5264C3.4828 27.5645 5.48582 32.3954 9.04912 35.9571C12.6124 39.5187 17.4443 41.5195 22.4824 41.5195C27.5205 41.5195 32.3524 39.5187 35.9157 35.9571C39.479 32.3954 41.482 27.5645 41.4844 22.5264C41.4867 17.4882 39.4882 12.6554 35.9282 9.09049C32.3681 5.52553 27.5381 3.52029 22.5 3.51562ZM22.5 37.2656C18.933 37.261 15.4883 35.9653 12.8025 33.618C10.1167 31.2707 8.37137 28.0305 7.88914 24.4962C7.40691 20.962 8.22035 17.3727 10.1791 14.3916C12.1379 11.4106 15.1096 9.23938 18.5449 8.2793C17.5957 10.6875 17.5781 12.5332 17.5781 12.6562C17.5828 13.9602 18.1028 15.2094 19.0248 16.1314C19.9469 17.0535 21.1961 17.5735 22.5 17.5781C23.3653 17.5797 24.2152 17.3491 24.9609 16.9102C25.2232 16.7844 25.4566 16.6057 25.6465 16.3853C25.8364 16.165 25.9787 15.9078 26.0644 15.6298C26.1501 15.3518 26.1774 15.0591 26.1446 14.7701C26.1118 14.4811 26.0195 14.202 25.8736 13.9503C25.7277 13.6987 25.5314 13.4799 25.2969 13.3078C25.0624 13.1357 24.7948 13.0139 24.511 12.9501C24.2272 12.8864 23.9333 12.882 23.6477 12.9373C23.3621 12.9926 23.0911 13.1064 22.8516 13.2715C22.7425 13.327 22.6223 13.3571 22.5 13.3594C22.3165 13.3594 22.1403 13.2878 22.0089 13.1597C21.8776 13.0316 21.8015 12.8572 21.7969 12.6738C21.7969 12.5332 21.9023 10.248 23.5371 7.76953C27.3575 8.03359 30.9259 9.77161 33.4892 12.6168C36.0524 15.462 37.41 19.1917 37.2755 23.0189C37.1409 26.846 35.5247 30.4712 32.7679 33.1293C30.0112 35.7874 26.3295 37.2705 22.5 37.2656ZM16.1719 25.3125C15.6156 25.3125 15.0718 25.1475 14.6093 24.8385C14.1468 24.5295 13.7863 24.0902 13.5735 23.5763C13.3606 23.0624 13.3049 22.4969 13.4134 21.9513C13.5219 21.4057 13.7898 20.9046 14.1831 20.5113C14.5765 20.1179 15.0776 19.8501 15.6232 19.7415C16.1688 19.633 16.7343 19.6887 17.2482 19.9016C17.7621 20.1145 18.2013 20.4749 18.5104 20.9375C18.8194 21.4 18.9844 21.9437 18.9844 22.5C18.9844 23.2459 18.6881 23.9613 18.1606 24.4887C17.6332 25.0162 16.9178 25.3125 16.1719 25.3125ZM31.6406 22.5C31.6406 23.0563 31.4757 23.6 31.1666 24.0625C30.8576 24.5251 30.4183 24.8855 29.9044 25.0984C29.3905 25.3113 28.825 25.367 28.2794 25.2585C27.7339 25.1499 27.2327 24.8821 26.8394 24.4887C26.4461 24.0954 26.1782 23.5943 26.0697 23.0487C25.9611 22.5031 26.0168 21.9376 26.2297 21.4237C26.4426 20.9098 26.8031 20.4705 27.2656 20.1615C27.7281 19.8525 28.2719 19.6875 28.8281 19.6875C29.574 19.6875 30.2894 19.9838 30.8169 20.5113C31.3443 21.0387 31.6406 21.7541 31.6406 22.5ZM28.916 28.3711C29.0711 28.6003 29.1791 28.8579 29.2339 29.1292C29.2887 29.4004 29.2891 29.6798 29.2352 29.9512C29.1812 30.2226 29.074 30.4806 28.9196 30.7102C28.7653 30.9399 28.5669 31.1366 28.3359 31.2891C26.6056 32.4358 24.5758 33.0473 22.5 33.0473C20.4242 33.0473 18.3944 32.4358 16.6641 31.2891C16.1979 30.979 15.8739 30.4965 15.7635 29.9476C15.653 29.3988 15.7652 28.8285 16.0752 28.3623C16.3852 27.8961 16.8677 27.5722 17.4166 27.4617C17.9655 27.3513 18.5358 27.4634 19.002 27.7734C20.0389 28.4613 21.2556 28.8282 22.5 28.8282C23.7444 28.8282 24.9611 28.4613 25.998 27.7734C26.2283 27.6192 26.4869 27.5122 26.7588 27.4588C27.0307 27.4053 27.3105 27.4064 27.582 27.462C27.8535 27.5176 28.1112 27.6266 28.3402 27.7827C28.5692 27.9388 28.765 28.1388 28.916 28.3711Z" fill="#2FB188"/>
</svg>
