<svg width="35" height="35" viewBox="0 0 35 35" fill="none" xmlns="http://www.w3.org/2000/svg">
<path d="M11.6672 23.333C9.6255 22.6527 7.26738 21.0194 6.21592 19.3773C6.07698 19.1493 6.01464 18.8828 6.038 18.6168L6.21665 15.8824C6.25529 15.2918 6.95311 14.9782 7.43509 15.3209C8.99113 16.4271 11.8341 18.2288 13.8547 18.2288C18.9588 18.2288 23.3338 16.4059 25.5213 12.3955" stroke="#A3D9BC" stroke-opacity="0.24" stroke-width="2.91667" stroke-linecap="round" stroke-linejoin="round"/>
<path d="M18.9587 31.354C26.2504 29.8957 32.9901 22.2504 31.2576 14.5401L30.6254 11.6665V5.83317L26.2504 5.104C26.2504 14.5401 24.0629 21.8748 14.5837 23.3332C10.2262 24.004 6.04883 23.0517 2.82227 21.2025L3.64622 26.2498C5.10456 29.8957 11.6671 32.8123 18.9587 31.354Z" stroke="#A3D9BC" stroke-opacity="0.24" stroke-width="2.91667" stroke-linecap="round" stroke-linejoin="round"/>
</svg>
