<svg width="35" height="35" viewBox="0 0 35 35" fill="none" xmlns="http://www.w3.org/2000/svg">
<path d="M10.2083 30.6247C13.43 30.6247 16.0417 28.013 16.0417 24.7913C16.0417 21.5697 13.43 18.958 10.2083 18.958C6.98667 18.958 4.375 21.5697 4.375 24.7913C4.375 28.013 6.98667 30.6247 10.2083 30.6247Z" stroke="#A3D9BC" stroke-opacity="0.24" stroke-width="2.91667" stroke-linecap="round" stroke-linejoin="round"/>
<path d="M25.5221 32.0833C28.3411 32.0833 30.6263 29.7981 30.6263 26.9792C30.6263 24.1602 28.3411 21.875 25.5221 21.875C22.7032 21.875 20.418 24.1602 20.418 26.9792C20.418 29.7981 22.7032 32.0833 25.5221 32.0833Z" stroke="#A3D9BC" stroke-opacity="0.24" stroke-width="2.91667" stroke-linecap="round" stroke-linejoin="round"/>
<path d="M21.875 2.9165L32.0833 11.6665M26.9792 7.2915C25.0461 7.88359 20.8746 9.48921 18.4333 11.8561C14.7693 15.4071 13.8542 17.8644 13.125 19.6873L26.9792 7.2915ZM26.9792 7.2915C26.1647 8.25255 24.5839 10.6428 24.0946 13.4092C23.3603 17.5567 24.0625 20.0519 24.7917 21.8748L26.9792 7.2915Z" stroke="#A3D9BC" stroke-opacity="0.24" stroke-width="2.91667" stroke-linecap="round"/>
</svg>
