<svg width="45" height="45" viewBox="0 0 45 45" fill="none" xmlns="http://www.w3.org/2000/svg">
<path d="M40.3125 24.375C38.0128 23.43 33.75 19.6875 26.25 25.3125C24.2784 24.21 20.625 21.5625 15 26.25C14.3428 23.5725 14.2116 17.4788 15 12.1875C15.3281 11.4 16.6819 10.8422 20.625 15L25.3125 10.3125C24.9844 8.265 22.5 5.625 15 5.625C12.1875 5.625 9.62062 8.02969 8.4375 12.1875C6.95906 16.4391 4.6875 26.25 4.6875 31.875C4.6875 33.6075 7.03125 37.5 15.9375 37.5C17.8125 37.5 23.2969 37.7109 30 34.6875L35.625 39.375" stroke="#2FB188" stroke-width="4" stroke-linecap="round" stroke-linejoin="round"/>
</svg>
