<svg width="45" height="45" viewBox="0 0 45 45" fill="none" xmlns="http://www.w3.org/2000/svg">
<path d="M29.4566 7.5C31.0128 7.5 32.4941 7.9125 33.7503 8.7375C35.8878 10.125 37.2003 12.2438 37.5003 14.7C37.6075 15.8898 37.4533 17.0886 37.0485 18.2125C36.6436 19.3364 35.9979 20.3582 35.1566 21.2063C33.8441 22.5 32.1753 23.325 30.3378 23.5125C26.7566 23.8875 23.6066 25.3125 21.2628 27.6938C20.9795 27.9702 20.5993 28.125 20.2034 28.125C19.8076 28.125 19.4274 27.9702 19.1441 27.6938L17.2878 25.8375C17.1566 25.7075 17.0526 25.5527 16.9817 25.3821C16.9109 25.2115 16.8747 25.0285 16.8753 24.8438C16.8753 24.375 17.0816 23.9625 17.4753 23.5687C19.7441 21.2812 21.1316 18.2437 21.4691 14.7562C21.7128 12.2625 23.0441 10.125 25.2191 8.71875C26.4566 7.9125 27.9191 7.5 29.4566 7.5ZM29.4566 3.75C27.2628 3.75 25.0691 4.35 23.1753 5.56875C19.8753 7.6875 18.0566 10.9875 17.7378 14.4C17.4941 16.875 16.5566 19.1812 14.8316 20.9062L14.7753 20.9625C12.6003 23.1375 12.6003 26.4562 14.6441 28.4812L16.5003 30.3375C17.5316 31.3688 18.8628 31.875 20.1941 31.875C21.5253 31.875 22.8753 31.3688 23.9066 30.3375C25.7253 28.5188 28.1253 27.525 30.7316 27.2437C33.3003 26.9625 35.8128 25.8375 37.8003 23.8687C39.0472 22.6235 39.9983 21.1139 40.5831 19.4516C41.1679 17.7892 41.3715 16.0167 41.1789 14.265C40.9863 12.5134 40.4023 10.8274 39.4702 9.33188C38.5382 7.83635 37.2818 6.56949 35.7941 5.625C33.9003 4.36875 31.6878 3.75 29.4566 3.75ZM11.7378 37.2375C12.2441 38.2875 12.0753 39.5625 11.1941 40.425C10.8124 40.8124 10.3259 41.08 9.79438 41.195C9.26283 41.3099 8.70927 41.2673 8.20163 41.0722C7.69398 40.8771 7.25431 40.538 6.93656 40.0967C6.6188 39.6553 6.43677 39.1308 6.41281 38.5875C5.86949 38.5635 5.34498 38.3815 4.90362 38.0637C4.46226 37.746 4.12324 37.3063 3.92814 36.7987C3.73304 36.291 3.69036 35.7375 3.80532 35.2059C3.92027 34.6744 4.18788 34.1879 4.5753 33.8063C5.4378 32.9438 6.73155 32.7563 7.7628 33.2625L12.4128 28.7063C12.6753 29.0625 12.9753 29.475 13.3128 29.8125L15.1691 31.6687C15.5628 32.0437 15.9378 32.3625 16.4253 32.6437L11.7378 37.2375Z" fill="#2FB188"/>
</svg>
