<svg width="35" height="35" viewBox="0 0 35 35" fill="none" xmlns="http://www.w3.org/2000/svg">
<path d="M27.7096 17.5002C27.7096 15.4731 26.3242 13.8106 24.4721 13.3002C24.7407 12.6366 24.8421 11.9172 24.7674 11.2052C24.6928 10.4933 24.4443 9.81058 24.0439 9.21717C23.6435 8.62376 23.1034 8.13783 22.4711 7.8021C21.8389 7.46638 21.1338 7.29115 20.418 7.29183C19.7909 7.29183 19.2076 7.43766 18.6826 7.671C18.9596 6.11058 19.5284 3.77725 21.0013 3.2085L19.8346 1.4585C17.3555 2.58141 16.6263 5.96475 16.4221 7.71475C15.8534 7.45225 15.2409 7.29183 14.5846 7.29183C13.8688 7.29115 13.1637 7.46638 12.5315 7.8021C11.8992 8.13783 11.3591 8.62376 10.9587 9.21717C10.5583 9.81058 10.3098 10.4933 10.2352 11.2052C10.1605 11.9172 10.2619 12.6366 10.5305 13.3002C8.6638 13.796 7.29297 15.4877 7.29297 17.5002C7.29297 19.5272 8.67839 21.2043 10.5451 21.7002C10.3409 22.196 10.2096 22.7502 10.2096 23.3335C10.2096 25.3606 11.5805 27.0377 13.4471 27.5335C13.1786 28.1971 13.0772 28.9165 13.1518 29.6284C13.2265 30.3404 13.475 31.0231 13.8754 31.6165C14.2758 32.2099 14.8159 32.6958 15.4481 33.0316C16.0804 33.3673 16.7854 33.5425 17.5013 33.5418C18.2172 33.5425 18.9222 33.3673 19.5545 33.0316C20.1867 32.6958 20.7268 32.2099 21.1272 31.6165C21.5276 31.0231 21.7761 30.3404 21.8508 29.6284C21.9254 28.9165 21.824 28.1971 21.5555 27.5335C22.4837 27.2902 23.3051 26.746 23.8909 25.9859C24.4767 25.2259 24.794 24.2931 24.793 23.3335C24.793 22.7502 24.6763 22.2106 24.4576 21.7002C25.3875 21.4578 26.211 20.9142 26.7994 20.1544C27.3877 19.3945 27.7078 18.4612 27.7096 17.5002ZM23.7867 14.4085V14.4377H23.7721L23.7867 14.4085ZM20.418 9.47933C21.6284 9.47933 22.6055 10.4564 22.6055 11.6668C22.6055 12.8772 21.6284 13.8543 20.418 13.8543C19.2076 13.8543 18.2305 12.8772 18.2305 11.6668C18.2305 10.4564 19.2076 9.47933 20.418 9.47933ZM19.6888 17.5002C19.6888 18.7106 18.7117 19.6877 17.5013 19.6877C16.2909 19.6877 15.3138 18.7106 15.3138 17.5002C15.3138 16.2897 16.2909 15.3127 17.5013 15.3127C18.7117 15.3127 19.6888 16.2897 19.6888 17.5002ZM14.5846 9.47933C15.7951 9.47933 16.7721 10.4564 16.7721 11.6668C16.7721 12.8772 15.7951 13.8543 14.5846 13.8543C13.3742 13.8543 12.3971 12.8772 12.3971 11.6668C12.3971 10.4564 13.3742 9.47933 14.5846 9.47933ZM9.48047 17.5002C9.48047 16.2897 10.4576 15.3127 11.668 15.3127C12.8784 15.3127 13.8555 16.2897 13.8555 17.5002C13.8555 18.7106 12.8784 19.6877 11.668 19.6877C10.4576 19.6877 9.48047 18.7106 9.48047 17.5002ZM12.3971 23.3335C12.3971 22.1231 13.3742 21.146 14.5846 21.146C15.7951 21.146 16.7721 22.1231 16.7721 23.3335C16.7721 24.5439 15.7951 25.521 14.5846 25.521C13.3742 25.521 12.3971 24.5439 12.3971 23.3335ZM17.5013 31.3543C16.2909 31.3543 15.3138 30.3772 15.3138 29.1668C15.3138 27.9564 16.2909 26.9793 17.5013 26.9793C18.7117 26.9793 19.6888 27.9564 19.6888 29.1668C19.6888 30.3772 18.7117 31.3543 17.5013 31.3543ZM20.418 25.521C19.2076 25.521 18.2305 24.5439 18.2305 23.3335C18.2305 22.1231 19.2076 21.146 20.418 21.146C21.6284 21.146 22.6055 22.1231 22.6055 23.3335C22.6055 24.5439 21.6284 25.521 20.418 25.521ZM23.3346 19.6877C22.1242 19.6877 21.1471 18.7106 21.1471 17.5002C21.1471 16.2897 22.1242 15.3127 23.3346 15.3127C24.5451 15.3127 25.5221 16.2897 25.5221 17.5002C25.5221 18.7106 24.5451 19.6877 23.3346 19.6877Z" fill="#A3D9BC" fill-opacity="0.24"/>
</svg>
