<svg width="40" height="40" viewBox="0 0 40 40" fill="none" xmlns="http://www.w3.org/2000/svg">
<path d="M19.9987 6.66659C16.4625 6.66659 13.0711 8.07134 10.5706 10.5718C8.07012 13.0723 6.66536 16.4637 6.66536 19.9999H11.6654C12.5494 19.9999 13.3973 20.3511 14.0224 20.9762C14.6475 21.6014 14.9987 22.4492 14.9987 23.3333V31.6666C14.9987 32.5506 14.6475 33.3985 14.0224 34.0236C13.3973 34.6487 12.5494 34.9999 11.6654 34.9999H6.66536C5.78131 34.9999 4.93346 34.6487 4.30834 34.0236C3.68322 33.3985 3.33203 32.5506 3.33203 31.6666V19.9999C3.33203 10.7949 10.7937 3.33325 19.9987 3.33325C29.2037 3.33325 36.6654 10.7949 36.6654 19.9999V31.6666C36.6654 32.5506 36.3142 33.3985 35.6891 34.0236C35.0639 34.6487 34.2161 34.9999 33.332 34.9999H28.332C27.448 34.9999 26.6001 34.6487 25.975 34.0236C25.3499 33.3985 24.9987 32.5506 24.9987 31.6666V23.3333C24.9987 22.4492 25.3499 21.6014 25.975 20.9762C26.6001 20.3511 27.448 19.9999 28.332 19.9999H33.332C33.332 16.4637 31.9273 13.0723 29.4268 10.5718C26.9263 8.07134 23.5349 6.66659 19.9987 6.66659ZM6.66536 23.3333V31.6666H11.6654V23.3333H6.66536ZM28.332 23.3333V31.6666H33.332V23.3333H28.332Z" fill="#2FB188"/>
</svg>
