<svg width="24" height="24" viewBox="0 0 24 24" fill="none" xmlns="http://www.w3.org/2000/svg">
<path d="M16.5 20.9999C9.05625 20.9999 3 14.9436 3 7.49989C3.00281 6.22306 3.46919 4.99071 4.31243 4.03194C5.15566 3.07317 6.31837 2.45323 7.58438 2.28739C7.90711 2.2516 8.23284 2.31955 8.51435 2.48138C8.79586 2.6432 9.01851 2.89049 9.15 3.18739L11.0344 7.58426C11.1321 7.81249 11.1713 8.06151 11.1484 8.30873C11.1255 8.55594 11.0412 8.79352 10.9031 8.99989L9.34688 11.3811C10.0516 12.8113 11.2127 13.9658 12.6469 14.6624L15 13.0968C15.2062 12.9578 15.4443 12.8737 15.692 12.8524C15.9397 12.831 16.1888 12.8732 16.4156 12.9749L20.8125 14.8499C21.1094 14.9814 21.3567 15.204 21.5185 15.4855C21.6803 15.767 21.7483 16.0928 21.7125 16.4155C21.5467 17.6815 20.9267 18.8442 19.9679 19.6875C19.0092 20.5307 17.7768 20.9971 16.5 20.9999ZM7.77188 3.77801C6.86714 3.89431 6.03582 4.3364 5.43356 5.02149C4.8313 5.70658 4.4994 6.58771 4.5 7.49989C4.50248 10.6817 5.76756 13.7325 8.01746 15.9824C10.2674 18.2323 13.3182 19.4974 16.5 19.4999C17.4122 19.5005 18.2933 19.1686 18.9784 18.5663C19.6635 17.9641 20.1056 17.1327 20.2219 16.228L15.825 14.353L13.4813 15.9186C13.2656 16.0612 13.0168 16.1456 12.7589 16.1637C12.501 16.1818 12.2428 16.1329 12.0094 16.0218C10.2628 15.1769 8.84994 13.7707 7.99688 12.028C7.8844 11.7954 7.83393 11.5376 7.85036 11.2798C7.86678 11.0219 7.94955 10.7726 8.09063 10.5561L9.65625 8.17489L7.77188 3.77801Z" fill="white"/>
</svg>
