<svg width="45" height="45" viewBox="0 0 45 45" fill="none" xmlns="http://www.w3.org/2000/svg">
<path d="M38.0553 6.94338C37.1213 6.00689 36.0117 5.26389 34.79 4.75693C33.5684 4.24997 32.2588 3.98901 30.9361 3.98901C29.6135 3.98901 28.3038 4.24997 27.0822 4.75693C25.8606 5.26389 24.751 6.00689 23.817 6.94338L6.94199 23.8184C5.96185 24.743 5.17719 25.8548 4.63446 27.0881C4.09173 28.3214 3.80196 29.651 3.78232 30.9983C3.76268 32.3456 4.01356 33.6831 4.52011 34.9317C5.02666 36.1803 5.77858 37.3145 6.73135 38.2673C7.68412 39.2201 8.81837 39.972 10.067 40.4785C11.3155 40.9851 12.6531 41.236 14.0003 41.2163C15.3476 41.1967 16.6773 40.9069 17.9105 40.3642C19.1438 39.8215 20.2557 39.0368 21.1803 38.0567L38.0553 21.1817C39.938 19.2907 40.9951 16.7309 40.9951 14.0625C40.9951 11.3941 39.938 8.83432 38.0553 6.94338ZM18.192 35.0684C17.6495 35.6109 17.0055 36.0412 16.2967 36.3347C15.588 36.6283 14.8283 36.7794 14.0611 36.7794C13.294 36.7794 12.5343 36.6283 11.8255 36.3347C11.1168 36.0412 10.4727 35.6109 9.93027 35.0684C8.8347 33.9728 8.21921 32.4869 8.21921 30.9375C8.21921 29.3881 8.8347 27.9022 9.93027 26.8067L16.8736 19.8633L25.1353 28.125L18.192 35.0684ZM35.067 18.1934L28.1236 25.1367L19.8619 16.875L26.8053 9.93166C27.9008 8.83609 29.3868 8.2206 30.9361 8.2206C31.7033 8.2206 32.463 8.37171 33.1717 8.66529C33.8805 8.95888 34.5245 9.38919 35.067 9.93166C35.6095 10.4741 36.0398 11.1181 36.3334 11.8269C36.6269 12.5357 36.778 13.2953 36.778 14.0625C36.778 14.8297 36.6269 15.5893 36.3334 16.2981C36.0398 17.0069 35.6095 17.6509 35.067 18.1934ZM32.5533 14.0977C32.7465 14.2982 32.8977 14.5353 32.998 14.7951C33.0983 15.0548 33.1458 15.332 33.1376 15.6103C33.1294 15.8886 33.0657 16.1625 32.9503 16.4159C32.8349 16.6693 32.67 16.8971 32.4654 17.086L29.5826 19.8281C29.1725 20.186 28.6399 20.3714 28.0962 20.3457C27.5525 20.32 27.0398 20.0851 26.6653 19.6901C26.2907 19.2952 26.0834 18.7707 26.0865 18.2264C26.0897 17.6821 26.3031 17.1601 26.6822 16.7696L29.565 14.0274C29.7656 13.8353 30.0021 13.6846 30.261 13.5842C30.5199 13.4837 30.7961 13.4353 31.0738 13.4419C31.3514 13.4484 31.625 13.5097 31.8789 13.6222C32.1328 13.7348 32.362 13.8963 32.5533 14.0977Z" fill="#2FB188"/>
</svg>
