<svg width="25" height="25" viewBox="0 0 25 25" fill="none" xmlns="http://www.w3.org/2000/svg">
<path d="M10.4154 18.7502C12.2643 18.7498 14.06 18.1308 15.5164 16.9918L20.0956 21.571L21.5685 20.0981L16.9893 15.5189C18.1289 14.0623 18.7483 12.2662 18.7487 10.4168C18.7487 5.82204 15.0102 2.0835 10.4154 2.0835C5.82057 2.0835 2.08203 5.82204 2.08203 10.4168C2.08203 15.0116 5.82057 18.7502 10.4154 18.7502ZM10.4154 4.16683C13.8622 4.16683 16.6654 6.96995 16.6654 10.4168C16.6654 13.8637 13.8622 16.6668 10.4154 16.6668C6.96849 16.6668 4.16536 13.8637 4.16536 10.4168C4.16536 6.96995 6.96849 4.16683 10.4154 4.16683Z" fill="#1F1F1F"/>
</svg>
