<svg width="48" height="46" viewBox="0 0 48 46" fill="none" xmlns="http://www.w3.org/2000/svg">
<path d="M33.3496 9.76514C32.3166 10.2396 31.5824 11.2018 31.4658 12.3325L31.4502 12.6499V22.7505H33.3496V9.76514ZM24.25 14.9497C24.2503 16.3358 23.7504 17.6783 22.8379 18.7495C21.9695 19.7688 20.7782 20.4815 19.4502 20.7856V37.9497L19.4434 38.0815C19.4141 38.3861 19.2827 38.6734 19.0684 38.8989C18.8233 39.1566 18.4877 39.3151 18.1299 39.3462C17.7721 39.3773 17.4141 39.279 17.126 39.0688C16.8376 38.8584 16.6388 38.5506 16.5732 38.2036L16.5713 38.1919L16.5703 38.1802L16.5508 37.9731L16.5498 37.9614V20.7866C15.2927 20.4983 14.1564 19.8429 13.3008 18.9058C12.3993 17.9184 11.8586 16.673 11.7646 15.3608V15.3521L11.75 14.9595V8.05029L11.7559 7.91846C11.7851 7.61383 11.9174 7.32661 12.1318 7.10107C12.3769 6.84345 12.7124 6.68492 13.0703 6.65381C13.428 6.6228 13.7861 6.721 14.0742 6.93115C14.3625 7.14151 14.5604 7.44955 14.626 7.79639L14.6289 7.80811L14.6299 7.81982L14.6494 8.02686L14.6504 8.03857V14.9507C14.6501 15.61 14.8632 16.254 15.2617 16.7944C15.5915 17.2415 16.0358 17.5975 16.5498 17.8335V8.05029L16.5566 7.91846C16.5859 7.61391 16.7173 7.32658 16.9316 7.10107C17.1767 6.84345 17.5123 6.68492 17.8701 6.65381C18.2279 6.62275 18.5859 6.72096 18.874 6.93115C19.1264 7.11526 19.3097 7.37412 19.3955 7.66846L19.4268 7.79639L19.4287 7.80811L19.4297 7.81982L19.4492 8.02686L19.4502 8.03857V17.8315C20.4833 17.357 21.2186 16.3958 21.335 15.2671L21.3496 14.9497V8.05029C21.3496 7.67547 21.5053 7.3178 21.7783 7.05615C22.0509 6.79491 22.4187 6.64995 22.7998 6.6499C23.1363 6.64979 23.4637 6.76285 23.7246 6.97119C23.9531 7.15369 24.118 7.39992 24.1973 7.67627L24.2266 7.79639L24.2285 7.80811L24.2295 7.81982L24.249 8.02686L24.25 8.03857V14.9497ZM36.25 37.9497L36.2441 38.0815C36.2149 38.3862 36.0826 38.6734 35.8682 38.8989C35.6231 39.1566 35.2875 39.3151 34.9297 39.3462C34.572 39.3772 34.2139 39.279 33.9258 39.0688C33.6375 38.8585 33.4396 38.5505 33.374 38.2036L33.3711 38.1919L33.3701 38.1802L33.3506 37.9731L33.3496 37.9614V25.5503H30C29.6635 25.5504 29.3361 25.4373 29.0752 25.229C28.8141 25.0205 28.6353 24.7287 28.5732 24.4038L28.5713 24.3921L28.5703 24.3804L28.5508 24.1733L28.5498 24.1616V12.6499C28.5499 11.0551 29.2116 9.52809 30.3848 8.40381C31.5575 7.27997 33.1457 6.64995 34.7998 6.6499C35.1363 6.64979 35.4637 6.76285 35.7246 6.97119C35.9531 7.15369 36.118 7.39992 36.1973 7.67627L36.2266 7.79639L36.2285 7.80811L36.2295 7.81982L36.249 8.02686L36.25 8.03857V37.9497Z" fill="#2FB188" stroke="#2FB188" stroke-width="0.5"/>
</svg>
