<svg width="45" height="45" viewBox="0 0 45 45" fill="none" xmlns="http://www.w3.org/2000/svg">
<path d="M35.625 13.125H33.75V11.25C33.75 9.75816 33.1574 8.32742 32.1025 7.27252C31.0476 6.21763 29.6168 5.625 28.125 5.625H9.375C7.88316 5.625 6.45242 6.21763 5.39752 7.27252C4.34263 8.32742 3.75 9.75816 3.75 11.25V33.75C3.75 35.2418 4.34263 36.6726 5.39752 37.7275C6.45242 38.7824 7.88316 39.375 9.375 39.375H35.625C37.1168 39.375 38.5476 38.7824 39.6025 37.7275C40.6574 36.6726 41.25 35.2418 41.25 33.75V18.75C41.25 17.2582 40.6574 15.8274 39.6025 14.7725C38.5476 13.7176 37.1168 13.125 35.625 13.125ZM9.375 9.375H28.125C28.6223 9.375 29.0992 9.57254 29.4508 9.92418C29.8025 10.2758 30 10.7527 30 11.25V13.125H9.375C8.87772 13.125 8.40081 12.9275 8.04918 12.5758C7.69755 12.2242 7.5 11.7473 7.5 11.25C7.5 10.7527 7.69755 10.2758 8.04918 9.92418C8.40081 9.57254 8.87772 9.375 9.375 9.375ZM37.5 28.125H35.625C35.1277 28.125 34.6508 27.9275 34.2992 27.5758C33.9475 27.2242 33.75 26.7473 33.75 26.25C33.75 25.7527 33.9475 25.2758 34.2992 24.9242C34.6508 24.5725 35.1277 24.375 35.625 24.375H37.5V28.125ZM37.5 20.625H35.625C34.1332 20.625 32.7024 21.2176 31.6475 22.2725C30.5926 23.3274 30 24.7582 30 26.25C30 27.7418 30.5926 29.1726 31.6475 30.2275C32.7024 31.2824 34.1332 31.875 35.625 31.875H37.5V33.75C37.5 34.2473 37.3025 34.7242 36.9508 35.0758C36.5992 35.4275 36.1223 35.625 35.625 35.625H9.375C8.87772 35.625 8.40081 35.4275 8.04918 35.0758C7.69755 34.7242 7.5 34.2473 7.5 33.75V16.5562C8.10238 16.7682 8.73644 16.8759 9.375 16.875H35.625C36.1223 16.875 36.5992 17.0725 36.9508 17.4242C37.3025 17.7758 37.5 18.2527 37.5 18.75V20.625Z" fill="#2FB188"/>
</svg>
