<svg width="45" height="45" viewBox="0 0 45 45" fill="none" xmlns="http://www.w3.org/2000/svg">
<path d="M35.625 7.50011H32.9062C32.6823 6.81633 32.3326 6.18041 31.875 5.62511C31.3445 5.03193 30.6941 4.55808 29.9668 4.23486C29.2396 3.91165 28.4521 3.74642 27.6562 3.75011H17.3813C16.5791 3.74108 15.7844 3.90372 15.0503 4.22711C14.3162 4.5505 13.6597 5.02716 13.125 5.62511C12.6541 6.1774 12.2915 6.81351 12.0562 7.50011H9.375C7.88316 7.50011 6.45242 8.09274 5.39752 9.14764C4.34263 10.2025 3.75 11.6333 3.75 13.1251V35.6251C3.75 37.117 4.34263 38.5477 5.39752 39.6026C6.45242 40.6575 7.88316 41.2501 9.375 41.2501H35.625C37.1168 41.2501 38.5476 40.6575 39.6025 39.6026C40.6574 38.5477 41.25 37.117 41.25 35.6251V13.1251C41.25 11.6333 40.6574 10.2025 39.6025 9.14764C38.5476 8.09274 37.1168 7.50011 35.625 7.50011ZM15.975 8.13761C16.1507 7.93761 16.367 7.77731 16.6095 7.66739C16.8519 7.55747 17.115 7.50045 17.3813 7.50011H27.6187C27.885 7.50045 28.1481 7.55747 28.3905 7.66739C28.633 7.77731 28.8493 7.93761 29.025 8.13761C29.2019 8.33449 29.3352 8.5666 29.416 8.81867C29.4968 9.07074 29.5233 9.33706 29.4937 9.60011L28.5562 17.1001C28.501 17.5574 28.2793 17.9784 27.9335 18.2828C27.5876 18.5871 27.1419 18.7534 26.6812 18.7501L22.0107 18.5871L21.0324 15.1632C21.0324 15.1632 20.7172 13.6477 20.5433 13.2066C20.5433 13.2066 20.1831 12.29 20.0542 12.2284C19.6264 12.024 19.0759 12.2284 19.0759 12.2284C18.6236 12.3703 18.0977 12.7175 18.0977 13.2066L19.4437 18.7501H18.3188C17.8581 18.7534 17.4124 18.5871 17.0665 18.2828C16.7207 17.9784 16.499 17.5574 16.4438 17.1001L15.5063 9.60011C15.4767 9.33706 15.5032 9.07074 15.584 8.81867C15.6648 8.5666 15.7981 8.33449 15.975 8.13761ZM37.5 35.6251C37.5 36.1224 37.3025 36.5993 36.9508 36.9509C36.5992 37.3026 36.1223 37.5001 35.625 37.5001H9.375C8.87772 37.5001 8.40081 37.3026 8.04918 36.9509C7.69754 36.5993 7.5 36.1224 7.5 35.6251V13.1251C7.5 12.6278 7.69754 12.1509 8.04918 11.7993C8.40081 11.4477 8.87772 11.2501 9.375 11.2501H11.9437L12.7312 17.5689C12.9013 18.9375 13.5682 20.1959 14.6052 21.105C15.6423 22.0142 16.9772 22.5106 18.3562 22.5001H26.7188C28.0978 22.5106 29.4327 22.0142 30.4698 21.105C31.5068 20.1959 32.1737 18.9375 32.3438 17.5689L33.0562 11.2501H35.625C36.1223 11.2501 36.5992 11.4477 36.9508 11.7993C37.3025 12.1509 37.5 12.6278 37.5 13.1251V35.6251ZM26.25 30.0001H18.75C18.2527 30.0001 17.7758 30.1977 17.4242 30.5493C17.0725 30.9009 16.875 31.3778 16.875 31.8751C16.875 32.3724 17.0725 32.8493 17.4242 33.2009C17.7758 33.5526 18.2527 33.7501 18.75 33.7501H26.25C26.7473 33.7501 27.2242 33.5526 27.5758 33.2009C27.9275 32.8493 28.125 32.3724 28.125 31.8751C28.125 31.3778 27.9275 30.9009 27.5758 30.5493C27.2242 30.1977 26.7473 30.0001 26.25 30.0001Z" fill="#2FB188"/>
</svg>
